<svg width="759" height="340" viewBox="0 0 759 340" fill="none" xmlns="http://www.w3.org/2000/svg">
<rect x="35" y="302" width="672" height="18" fill="#354A62"/>
<path d="M71 274L35 302H708L734 274H71Z" fill="#4A6987"/>
<path d="M734 292L733 275L707 302V320L734 292Z" fill="#354A62"/>
<path d="M182 292.008V295.581C182 297.093 180.775 298.318 179.263 298.318H149.885C148.373 298.318 147.148 297.093 147.148 295.581V292.008H182Z" fill="#DFDFDF"/>
<ellipse cx="164.917" cy="295.45" rx="1.94145" ry="2.27775" transform="rotate(90 164.917 295.45)" fill="#7B6C6B"/>
<mask id="path-6-inside-1" fill="white">
<path d="M180.045 232C181.125 232 182 232.875 182 233.955L182 293.009H147L147 233.955C147 232.875 147.875 232 148.955 232H180.045Z"/>
</mask>
<path d="M180.045 232C181.125 232 182 232.875 182 233.955L182 293.009H147L147 233.955C147 232.875 147.875 232 148.955 232H180.045Z" fill="#4FD4C4" stroke="#7B6C6B" stroke-width="4.2" mask="url(#path-6-inside-1)"/>
<path d="M149.014 234.096L179.639 290.398L179.639 234.096H149.014Z" fill="#76E4D9"/>
<path d="M452.474 173.772C452.474 171.95 453.95 170.474 455.772 170.474H632.228C634.05 170.474 635.526 171.95 635.526 173.772V285.912H452.474V173.772Z" fill="#FBCA61" stroke="#7B6C6B" stroke-width="4.94737"/>
<path d="M633.053 283.439L454.947 172.947H633.053V283.439Z" fill="#FBDA93"/>
<path d="M433 289.443C433 288.094 434.094 287 435.443 287H656.557C657.906 287 659 288.094 659 289.443C659 290.792 657.906 291.886 656.557 291.886H435.443C434.094 291.886 433 290.792 433 289.443Z" fill="#DFDFDF"/>
<path d="M442.391 296L435.027 291.5H655.96L650.699 296H442.391Z" fill="#D1D1D1"/>
<path d="M92.5127 48.3957C93.6244 48.3957 94.6249 48.618 95.5142 49.0627C96.4035 49.5073 96.8482 50.1743 96.8482 51.0636C96.8482 51.8418 96.6258 52.481 96.1812 52.9812C95.7365 53.4259 95.2085 53.6482 94.5971 53.6482C94.3192 53.6482 93.7634 53.5093 92.9296 53.2314C92.1515 52.9534 91.4011 52.8145 90.6785 52.8145C88.622 52.8145 86.5654 53.6204 84.5089 55.2323C82.5079 56.7886 80.8405 58.8174 79.5065 61.3186C78.2281 63.8198 77.5889 66.3488 77.5889 68.9056V89.4988C77.5889 90.2214 77.3388 90.8328 76.8385 91.333C76.3939 91.7777 75.8103 92 75.0877 92C74.3651 92 73.7537 91.7777 73.2535 91.333C72.8088 90.8328 72.5865 90.2214 72.5865 89.4988V52.1475C72.5865 51.4249 72.8088 50.8413 73.2535 50.3967C73.7537 49.8964 74.3651 49.6463 75.0877 49.6463C75.8103 49.6463 76.3939 49.8964 76.8385 50.3967C77.3388 50.8413 77.5889 51.4249 77.5889 52.1475V59.4844C78.8673 56.3162 80.7849 53.7038 83.3417 51.6473C85.954 49.5351 89.0111 48.4513 92.5127 48.3957ZM136.309 68.2386C136.309 68.9056 136.059 69.4892 135.559 69.9894C135.059 70.4341 134.475 70.6564 133.808 70.6564H102.293C102.293 73.9913 102.96 76.9928 104.294 79.6607C105.683 82.2731 107.629 84.3574 110.13 85.9137C112.687 87.4145 115.688 88.1648 119.134 88.1648C121.802 88.1648 124.192 87.609 126.304 86.4974C128.417 85.3857 130.112 83.9684 131.39 82.2453C132.002 81.7451 132.585 81.4949 133.141 81.4949C133.697 81.4949 134.197 81.7173 134.642 82.1619C135.086 82.6066 135.309 83.1068 135.309 83.6627C135.309 84.2741 135.031 84.8577 134.475 85.4135C132.696 87.5812 130.445 89.3598 127.722 90.7494C125.054 92.139 122.219 92.8337 119.218 92.8337C114.938 92.8337 111.158 91.9166 107.879 90.0824C104.6 88.2482 102.043 85.6914 100.209 82.4121C98.3743 79.0771 97.4572 75.2419 97.4572 70.9065C97.4572 66.3488 98.3465 62.3746 100.125 58.9841C101.959 55.538 104.377 52.9257 107.379 51.147C110.38 49.3128 113.576 48.3957 116.967 48.3957C120.302 48.3957 123.414 49.1739 126.304 50.7302C129.25 52.2865 131.64 54.5653 133.475 57.5668C135.309 60.5682 136.254 64.1255 136.309 68.2386ZM116.967 53.2314C113.743 53.2314 110.741 54.343 107.962 56.5663C105.239 58.7896 103.488 61.9856 102.71 66.1542H131.14V65.4873C130.862 62.986 130.028 60.8183 128.639 58.9841C127.249 57.0943 125.498 55.677 123.386 54.7321C121.33 53.7316 119.19 53.2314 116.967 53.2314ZM141.7 85.2468C141.256 84.5242 141.033 83.9128 141.033 83.4125C141.033 82.69 141.395 82.1341 142.117 81.7451C142.451 81.4116 142.895 81.2448 143.451 81.2448C144.118 81.2448 144.73 81.5227 145.286 82.0786C148.565 86.414 152.928 88.5817 158.375 88.5817C161.043 88.5817 163.35 87.9703 165.295 86.7475C167.296 85.4691 168.297 83.6349 168.297 81.2448C168.297 78.9104 167.379 77.1595 165.545 75.9923C163.711 74.8251 161.154 73.8246 157.875 72.9909C153.262 71.8236 149.649 70.3229 147.036 68.4887C144.424 66.5989 143.118 63.8476 143.118 60.2347C143.118 57.9559 143.757 55.9271 145.035 54.1485C146.314 52.3142 148.037 50.8969 150.205 49.8964C152.428 48.8959 154.929 48.3957 157.708 48.3957C160.098 48.3957 162.488 48.8681 164.878 49.813C167.324 50.7024 169.408 52.1475 171.131 54.1485C171.632 54.5375 171.882 55.0934 171.882 55.8159C171.882 56.4829 171.604 57.0665 171.048 57.5668C170.659 57.9003 170.159 58.067 169.547 58.067C168.991 58.067 168.491 57.8447 168.046 57.4C166.712 55.8993 165.128 54.7599 163.294 53.9817C161.46 53.2036 159.487 52.8145 157.375 52.8145C154.762 52.8145 152.511 53.4259 150.621 54.6487C148.787 55.8715 147.87 57.7057 147.87 60.1514C147.981 62.3746 148.982 64.0699 150.872 65.2371C152.817 66.4044 155.652 67.4604 159.376 68.4053C162.266 69.1279 164.656 69.9338 166.546 70.8232C168.436 71.7125 169.964 72.9631 171.131 74.575C172.354 76.1868 172.965 78.3268 172.965 80.9947C172.965 84.6076 171.52 87.4978 168.63 89.6655C165.74 91.7777 162.155 92.8337 157.875 92.8337C151.094 92.8337 145.702 90.3047 141.7 85.2468ZM200.958 49.0627C204.627 49.0627 207.961 50.0076 210.963 51.8974C213.964 53.7316 216.299 56.3162 217.966 59.6511C219.689 62.9305 220.551 66.6267 220.551 70.7398C220.551 74.9084 219.689 78.6603 217.966 81.9952C216.299 85.2745 213.964 87.8591 210.963 89.7489C208.017 91.6387 204.71 92.5836 201.041 92.5836C197.818 92.5836 194.844 91.8333 192.121 90.3325C189.453 88.7762 187.313 86.7197 185.701 84.1629V106.173C185.701 106.896 185.451 107.48 184.95 107.924C184.506 108.425 183.922 108.675 183.2 108.675C182.477 108.675 181.866 108.425 181.365 107.924C180.921 107.48 180.698 106.896 180.698 106.173V51.814C180.698 51.0914 180.921 50.48 181.365 49.9798C181.866 49.4796 182.477 49.2294 183.2 49.2294C183.922 49.2294 184.506 49.4796 184.95 49.9798C185.451 50.48 185.701 51.0914 185.701 51.814V57.4834C187.146 54.871 189.23 52.8145 191.954 51.3138C194.677 49.813 197.679 49.0627 200.958 49.0627ZM200.541 87.9147C203.432 87.9147 206.016 87.1921 208.295 85.747C210.629 84.2463 212.436 82.1897 213.714 79.5774C215.048 76.965 215.715 74.0191 215.715 70.7398C215.715 67.516 215.048 64.6257 213.714 62.0689C212.436 59.4566 210.629 57.4278 208.295 55.9827C206.016 54.482 203.432 53.7316 200.541 53.7316C197.595 53.7316 194.955 54.4542 192.621 55.8993C190.286 57.3444 188.48 59.3732 187.202 61.9856C185.923 64.5424 185.284 67.4604 185.284 70.7398C185.284 74.0191 185.923 76.965 187.202 79.5774C188.48 82.1897 190.286 84.2463 192.621 85.747C194.955 87.1921 197.595 87.9147 200.541 87.9147ZM267.704 70.6564C267.704 74.8251 266.787 78.6047 264.952 81.9952C263.118 85.3857 260.589 88.0537 257.365 89.999C254.142 91.8888 250.557 92.8337 246.61 92.8337C242.664 92.8337 239.079 91.8888 235.855 89.999C232.631 88.0537 230.102 85.3857 228.268 81.9952C226.434 78.6047 225.517 74.8251 225.517 70.6564C225.517 66.4877 226.434 62.7081 228.268 59.3176C230.102 55.9271 232.631 53.2591 235.855 51.3138C239.079 49.3684 242.664 48.3957 246.61 48.3957C250.557 48.3957 254.142 49.3684 257.365 51.3138C260.589 53.2591 263.118 55.9271 264.952 59.3176C266.787 62.7081 267.704 66.4877 267.704 70.6564ZM262.701 70.6564C262.701 67.3215 262.007 64.32 260.617 61.6521C259.227 58.9841 257.282 56.8998 254.781 55.3991C252.335 53.8428 249.612 53.0646 246.61 53.0646C243.609 53.0646 240.885 53.8428 238.44 55.3991C235.994 56.8998 234.049 58.9841 232.604 61.6521C231.214 64.32 230.519 67.3215 230.519 70.6564C230.519 73.9358 231.214 76.9094 232.604 79.5774C234.049 82.2453 235.994 84.3574 238.44 85.9137C240.885 87.4145 243.609 88.1648 246.61 88.1648C249.612 88.1648 252.335 87.4145 254.781 85.9137C257.282 84.413 259.227 82.3287 260.617 79.6607C262.007 76.9928 262.701 73.9913 262.701 70.6564ZM295.528 48.3957C300.697 48.3957 304.476 49.9242 306.866 52.9812C309.312 55.9827 310.535 59.9846 310.535 64.987V89.4988C310.535 90.2214 310.285 90.8328 309.785 91.333C309.284 91.7777 308.701 92 308.034 92C307.311 92 306.7 91.7777 306.199 91.333C305.755 90.8328 305.532 90.2214 305.532 89.4988V65.2371C305.532 61.6243 304.615 58.7062 302.781 56.4829C301.003 54.204 298.223 53.0646 294.444 53.0646C292.054 53.0646 289.775 53.6204 287.607 54.7321C285.495 55.8437 283.772 57.3444 282.438 59.2342C281.104 61.0685 280.437 63.0694 280.437 65.2371V89.4988C280.437 90.2214 280.187 90.8328 279.687 91.333C279.242 91.7777 278.658 92 277.936 92C277.213 92 276.602 91.7777 276.102 91.333C275.657 90.8328 275.435 90.2214 275.435 89.4988V52.1475C275.435 51.4249 275.657 50.8413 276.102 50.3967C276.602 49.8964 277.213 49.6463 277.936 49.6463C278.658 49.6463 279.242 49.8964 279.687 50.3967C280.187 50.8413 280.437 51.4249 280.437 52.1475V56.733C281.938 54.343 284.078 52.3698 286.857 50.8135C289.692 49.2016 292.582 48.3957 295.528 48.3957ZM318.716 85.2468C318.271 84.5242 318.049 83.9128 318.049 83.4125C318.049 82.69 318.41 82.1341 319.133 81.7451C319.466 81.4116 319.911 81.2448 320.467 81.2448C321.134 81.2448 321.745 81.5227 322.301 82.0786C325.58 86.414 329.944 88.5817 335.391 88.5817C338.059 88.5817 340.365 87.9703 342.311 86.7475C344.312 85.4691 345.312 83.6349 345.312 81.2448C345.312 78.9104 344.395 77.1595 342.561 75.9923C340.726 74.8251 338.17 73.8246 334.89 72.9909C330.277 71.8236 326.664 70.3229 324.052 68.4887C321.439 66.5989 320.133 63.8476 320.133 60.2347C320.133 57.9559 320.772 55.9271 322.051 54.1485C323.329 52.3142 325.052 50.8969 327.22 49.8964C329.443 48.8959 331.944 48.3957 334.724 48.3957C337.114 48.3957 339.504 48.8681 341.894 49.813C344.339 50.7024 346.424 52.1475 348.147 54.1485C348.647 54.5375 348.897 55.0934 348.897 55.8159C348.897 56.4829 348.619 57.0665 348.063 57.5668C347.674 57.9003 347.174 58.067 346.563 58.067C346.007 58.067 345.507 57.8447 345.062 57.4C343.728 55.8993 342.144 54.7599 340.31 53.9817C338.475 53.2036 336.502 52.8145 334.39 52.8145C331.778 52.8145 329.527 53.4259 327.637 54.6487C325.803 55.8715 324.886 57.7057 324.886 60.1514C324.997 62.3746 325.997 64.0699 327.887 65.2371C329.832 66.4044 332.667 67.4604 336.391 68.4053C339.281 69.1279 341.671 69.9338 343.561 70.8232C345.451 71.7125 346.98 72.9631 348.147 74.575C349.37 76.1868 349.981 78.3268 349.981 80.9947C349.981 84.6076 348.536 87.4978 345.646 89.6655C342.755 91.7777 339.17 92.8337 334.89 92.8337C328.109 92.8337 322.718 90.3047 318.716 85.2468ZM362.549 89.4988C362.549 90.2214 362.299 90.8328 361.799 91.333C361.354 91.7777 360.771 92 360.048 92C359.326 92 358.714 91.7777 358.214 91.333C357.769 90.8328 357.547 90.2214 357.547 89.4988V51.147C357.547 50.4245 357.769 49.8408 358.214 49.3962C358.714 48.8959 359.326 48.6458 360.048 48.6458C360.771 48.6458 361.354 48.8959 361.799 49.3962C362.299 49.8408 362.549 50.4245 362.549 51.147V89.4988ZM360.048 43.0598C358.937 43.0598 358.075 42.8097 357.464 42.3094C356.852 41.7536 356.547 40.9755 356.547 39.975V39.1413C356.547 38.1408 356.852 37.3904 357.464 36.8902C358.131 36.3343 359.02 36.0564 360.132 36.0564C362.355 36.0564 363.467 37.0847 363.467 39.1413V39.975C363.467 40.9755 363.161 41.7536 362.549 42.3094C361.994 42.8097 361.16 43.0598 360.048 43.0598ZM405.226 48.5624C405.781 48.5624 406.309 48.757 406.81 49.1461C407.31 49.5351 407.56 50.0354 407.56 50.6468C407.56 51.147 407.449 51.6195 407.227 52.0641L390.885 90.4159C390.663 90.8606 390.33 91.2496 389.885 91.5831C389.496 91.861 389.079 92 388.634 92C388.078 92.0556 387.578 91.9444 387.134 91.6665C386.689 91.3886 386.355 90.9717 386.133 90.4159L369.709 52.0641C369.709 51.953 369.653 51.7862 369.542 51.5639C369.486 51.3416 369.458 51.1192 369.458 50.8969C369.458 50.2299 369.681 49.6741 370.125 49.2294C370.57 48.7292 371.209 48.4791 372.043 48.4791C372.543 48.4791 372.988 48.6458 373.377 48.9793C373.822 49.2572 374.155 49.6463 374.377 50.1465L388.551 83.9128L402.808 50.1465C403.03 49.6463 403.336 49.2572 403.725 48.9793C404.17 48.6458 404.67 48.5069 405.226 48.5624ZM450.282 68.2386C450.282 68.9056 450.032 69.4892 449.531 69.9894C449.031 70.4341 448.448 70.6564 447.781 70.6564H416.265C416.265 73.9913 416.932 76.9928 418.266 79.6607C419.656 82.2731 421.601 84.3574 424.103 85.9137C426.659 87.4145 429.661 88.1648 433.107 88.1648C435.775 88.1648 438.165 87.609 440.277 86.4974C442.389 85.3857 444.084 83.9684 445.363 82.2453C445.974 81.7451 446.558 81.4949 447.114 81.4949C447.669 81.4949 448.17 81.7173 448.614 82.1619C449.059 82.6066 449.281 83.1068 449.281 83.6627C449.281 84.2741 449.003 84.8577 448.448 85.4135C446.669 87.5812 444.418 89.3598 441.694 90.7494C439.026 92.139 436.192 92.8337 433.19 92.8337C428.91 92.8337 425.131 91.9166 421.851 90.0824C418.572 88.2482 416.015 85.6914 414.181 82.4121C412.347 79.0771 411.43 75.2419 411.43 70.9065C411.43 66.3488 412.319 62.3746 414.098 58.9841C415.932 55.538 418.35 52.9257 421.351 51.147C424.353 49.3128 427.549 48.3957 430.939 48.3957C434.274 48.3957 437.387 49.1739 440.277 50.7302C443.223 52.2865 445.613 54.5653 447.447 57.5668C449.281 60.5682 450.226 64.1255 450.282 68.2386ZM430.939 53.2314C427.715 53.2314 424.714 54.343 421.935 56.5663C419.211 58.7896 417.46 61.9856 416.682 66.1542H445.113V65.4873C444.835 62.986 444.001 60.8183 442.611 58.9841C441.222 57.0943 439.471 55.677 437.359 54.7321C435.302 53.7316 433.162 53.2314 430.939 53.2314Z" fill="#3876A2"/>
<path d="M492.691 30.3037C493.413 30.3037 493.997 30.5538 494.442 31.054C494.942 31.4987 495.192 32.0823 495.192 32.8049V89.4988C495.192 90.2214 494.942 90.8328 494.442 91.333C493.997 91.7777 493.413 92 492.691 92C491.968 92 491.357 91.7777 490.857 91.333C490.412 90.8328 490.19 90.2214 490.19 89.4988V83.6627C488.8 86.2194 486.716 88.3872 483.937 90.1658C481.213 91.9444 478.184 92.8337 474.849 92.8337C471.18 92.8337 467.846 91.8888 464.844 89.999C461.898 88.0537 459.564 85.3857 457.841 81.9952C456.118 78.6047 455.256 74.7973 455.256 70.573C455.256 66.4044 456.118 62.6248 457.841 59.2342C459.564 55.8437 461.898 53.2036 464.844 51.3138C467.846 49.3684 471.153 48.3957 474.766 48.3957C478.045 48.3957 481.074 49.2294 483.853 50.8969C486.632 52.5088 488.744 54.6209 490.19 57.2333V32.8049C490.19 32.0823 490.412 31.4987 490.857 31.054C491.357 30.5538 491.968 30.3037 492.691 30.3037ZM475.349 88.1648C478.239 88.1648 480.824 87.4145 483.103 85.9137C485.437 84.413 487.244 82.3287 488.522 79.6607C489.856 76.9372 490.523 73.908 490.523 70.573C490.523 67.2937 489.856 64.32 488.522 61.6521C487.244 58.9841 485.437 56.8998 483.103 55.3991C480.824 53.8428 478.239 53.0646 475.349 53.0646C472.459 53.0646 469.847 53.8428 467.512 55.3991C465.233 56.8998 463.427 58.9841 462.093 61.6521C460.814 64.32 460.175 67.2937 460.175 70.573C460.175 73.908 460.814 76.9094 462.093 79.5774C463.427 82.2453 465.233 84.3574 467.512 85.9137C469.847 87.4145 472.459 88.1648 475.349 88.1648ZM541.761 68.2386C541.761 68.9056 541.511 69.4892 541.011 69.9894C540.511 70.4341 539.927 70.6564 539.26 70.6564H507.745C507.745 73.9913 508.412 76.9928 509.746 79.6607C511.135 82.2731 513.081 84.3574 515.582 85.9137C518.139 87.4145 521.14 88.1648 524.586 88.1648C527.254 88.1648 529.644 87.609 531.757 86.4974C533.869 85.3857 535.564 83.9684 536.842 82.2453C537.454 81.7451 538.037 81.4949 538.593 81.4949C539.149 81.4949 539.649 81.7173 540.094 82.1619C540.539 82.6066 540.761 83.1068 540.761 83.6627C540.761 84.2741 540.483 84.8577 539.927 85.4135C538.148 87.5812 535.897 89.3598 533.174 90.7494C530.506 92.139 527.671 92.8337 524.67 92.8337C520.39 92.8337 516.61 91.9166 513.331 90.0824C510.052 88.2482 507.495 85.6914 505.661 82.4121C503.826 79.0771 502.909 75.2419 502.909 70.9065C502.909 66.3488 503.799 62.3746 505.577 58.9841C507.411 55.538 509.829 52.9257 512.831 51.147C515.832 49.3128 519.028 48.3957 522.419 48.3957C525.754 48.3957 528.866 49.1739 531.757 50.7302C534.702 52.2865 537.092 54.5653 538.927 57.5668C540.761 60.5682 541.706 64.1255 541.761 68.2386ZM522.419 53.2314C519.195 53.2314 516.193 54.343 513.414 56.5663C510.691 58.7896 508.94 61.9856 508.162 66.1542H536.592V65.4873C536.314 62.986 535.481 60.8183 534.091 58.9841C532.701 57.0943 530.951 55.677 528.838 54.7321C526.782 53.7316 524.642 53.2314 522.419 53.2314ZM547.153 85.2468C546.708 84.5242 546.486 83.9128 546.486 83.4125C546.486 82.69 546.847 82.1341 547.569 81.7451C547.903 81.4116 548.348 81.2448 548.903 81.2448C549.57 81.2448 550.182 81.5227 550.738 82.0786C554.017 86.414 558.38 88.5817 563.827 88.5817C566.495 88.5817 568.802 87.9703 570.747 86.7475C572.748 85.4691 573.749 83.6349 573.749 81.2448C573.749 78.9104 572.832 77.1595 570.997 75.9923C569.163 74.8251 566.606 73.8246 563.327 72.9909C558.714 71.8236 555.101 70.3229 552.488 68.4887C549.876 66.5989 548.57 63.8476 548.57 60.2347C548.57 57.9559 549.209 55.9271 550.488 54.1485C551.766 52.3142 553.489 50.8969 555.657 49.8964C557.88 48.8959 560.381 48.3957 563.16 48.3957C565.55 48.3957 567.94 48.8681 570.33 49.813C572.776 50.7024 574.86 52.1475 576.583 54.1485C577.084 54.5375 577.334 55.0934 577.334 55.8159C577.334 56.4829 577.056 57.0665 576.5 57.5668C576.111 57.9003 575.611 58.067 574.999 58.067C574.443 58.067 573.943 57.8447 573.499 57.4C572.165 55.8993 570.581 54.7599 568.746 53.9817C566.912 53.2036 564.939 52.8145 562.827 52.8145C560.214 52.8145 557.963 53.4259 556.074 54.6487C554.239 55.8715 553.322 57.7057 553.322 60.1514C553.433 62.3746 554.434 64.0699 556.324 65.2371C558.269 66.4044 561.104 67.4604 564.828 68.4053C567.718 69.1279 570.108 69.9338 571.998 70.8232C573.888 71.7125 575.416 72.9631 576.583 74.575C577.806 76.1868 578.418 78.3268 578.418 80.9947C578.418 84.6076 576.972 87.4978 574.082 89.6655C571.192 91.7777 567.607 92.8337 563.327 92.8337C556.546 92.8337 551.155 90.3047 547.153 85.2468ZM590.986 89.4988C590.986 90.2214 590.736 90.8328 590.236 91.333C589.791 91.7777 589.207 92 588.485 92C587.762 92 587.151 91.7777 586.651 91.333C586.206 90.8328 585.984 90.2214 585.984 89.4988V51.147C585.984 50.4245 586.206 49.8408 586.651 49.3962C587.151 48.8959 587.762 48.6458 588.485 48.6458C589.207 48.6458 589.791 48.8959 590.236 49.3962C590.736 49.8408 590.986 50.4245 590.986 51.147V89.4988ZM588.485 43.0598C587.373 43.0598 586.512 42.8097 585.9 42.3094C585.289 41.7536 584.983 40.9755 584.983 39.975V39.1413C584.983 38.1408 585.289 37.3904 585.9 36.8902C586.567 36.3343 587.457 36.0564 588.568 36.0564C590.792 36.0564 591.903 37.0847 591.903 39.1413V39.975C591.903 40.9755 591.598 41.7536 590.986 42.3094C590.43 42.8097 589.597 43.0598 588.485 43.0598ZM637.497 49.3962C638.22 49.3962 638.804 49.6463 639.248 50.1465C639.749 50.5912 639.999 51.2026 639.999 51.9808V88.0814C639.999 92.4169 639.082 96.1131 637.247 99.1701C635.469 102.283 632.995 104.645 629.827 106.257C626.714 107.869 623.129 108.675 619.072 108.675C617.127 108.675 615.07 108.425 612.902 107.924C610.79 107.424 608.956 106.785 607.4 106.007C605.899 105.229 605.037 104.423 604.815 103.589C604.426 103.2 604.231 102.755 604.231 102.255C604.231 101.699 604.482 101.254 604.982 100.921C605.204 100.754 605.482 100.671 605.816 100.671C606.149 100.671 606.788 100.865 607.733 101.254L609.484 102.005C612.93 103.339 616.154 104.006 619.155 104.006C624.102 104.006 627.965 102.588 630.744 99.7537C633.579 96.9746 634.996 93.195 634.996 88.4149V83.2458C633.607 86.2472 631.411 88.6095 628.41 90.3325C625.408 92 622.268 92.8337 618.989 92.8337C615.153 92.8337 611.679 91.8888 608.567 89.999C605.51 88.0537 603.092 85.3857 601.313 81.9952C599.535 78.6047 598.645 74.7973 598.645 70.573C598.645 66.4044 599.535 62.6248 601.313 59.2342C603.092 55.8437 605.51 53.2036 608.567 51.3138C611.679 49.3684 615.126 48.3957 618.905 48.3957C622.407 48.3957 625.603 49.285 628.493 51.0636C631.439 52.7867 633.607 54.871 634.996 57.3167V51.9808C634.996 51.2582 635.219 50.6468 635.663 50.1465C636.163 49.6463 636.775 49.3962 637.497 49.3962ZM619.405 88.1648C622.462 88.1648 625.186 87.4423 627.576 85.9971C630.022 84.4964 631.911 82.4121 633.245 79.7441C634.635 77.0206 635.33 73.9635 635.33 70.573C635.33 67.1825 634.635 64.1533 633.245 61.4853C631.911 58.8174 630.022 56.7608 627.576 55.3157C625.186 53.815 622.462 53.0646 619.405 53.0646C616.404 53.0646 613.68 53.8428 611.235 55.3991C608.845 56.8998 606.955 58.9841 605.565 61.6521C604.231 64.32 603.564 67.2937 603.564 70.573C603.564 73.908 604.231 76.9094 605.565 79.5774C606.955 82.2453 608.845 84.3574 611.235 85.9137C613.68 87.4145 616.404 88.1648 619.405 88.1648ZM670.773 48.3957C675.942 48.3957 679.722 49.9242 682.112 52.9812C684.558 55.9827 685.78 59.9846 685.78 64.987V89.4988C685.78 90.2214 685.53 90.8328 685.03 91.333C684.53 91.7777 683.946 92 683.279 92C682.557 92 681.945 91.7777 681.445 91.333C681 90.8328 680.778 90.2214 680.778 89.4988V65.2371C680.778 61.6243 679.861 58.7062 678.027 56.4829C676.248 54.204 673.469 53.0646 669.689 53.0646C667.299 53.0646 665.02 53.6204 662.853 54.7321C660.741 55.8437 659.018 57.3444 657.684 59.2342C656.35 61.0685 655.683 63.0694 655.683 65.2371V89.4988C655.683 90.2214 655.432 90.8328 654.932 91.333C654.488 91.7777 653.904 92 653.181 92C652.459 92 651.847 91.7777 651.347 91.333C650.903 90.8328 650.68 90.2214 650.68 89.4988V52.1475C650.68 51.4249 650.903 50.8413 651.347 50.3967C651.847 49.8964 652.459 49.6463 653.181 49.6463C653.904 49.6463 654.488 49.8964 654.932 50.3967C655.432 50.8413 655.683 51.4249 655.683 52.1475V56.733C657.183 54.343 659.323 52.3698 662.102 50.8135C664.937 49.2016 667.827 48.3957 670.773 48.3957Z" fill="#EB806F"/>
<path d="M364.714 281.545V258H404.714V281.545L419 295H349L364.714 281.545Z" fill="#DFDFDF"/>
<path d="M270 253H498V259C498 262.866 494.866 266 491 266H277C273.134 266 270 262.866 270 259V253Z" fill="#DFDFDF"/>
<circle cx="384" cy="259" r="4" fill="#7B6C6B"/>
<path d="M273 114C273 111.791 274.791 110 277 110H491C493.209 110 495 111.791 495 114V250H273V114Z" fill="#FE6F55" stroke="#7B6C6B" stroke-width="6"/>
<path d="M492 247L276 113H492V247Z" fill="#FE9580"/>
<path d="M304.455 211H309.265C312.985 211 316 214.015 316 217.735V291.818C316 295.538 312.985 298.553 309.265 298.553H304.455V211Z" fill="#DFDFDF"/>
<circle cx="310.708" cy="254.777" r="3.36742" fill="#7B6C6B"/>
<path d="M191.38 215.811C191.38 214.468 192.468 213.38 193.811 213.38H303.999V296.544H193.811C192.468 296.544 191.38 295.456 191.38 294.114V215.811Z" fill="#7C67A2" stroke="#7B6C6B" stroke-width="4.75997"/>
<path d="M303 295L194 215H303V295Z" fill="#9789B5"/>
</svg>
