<svg width="275" height="141" viewBox="0 0 275 141" fill="none" xmlns="http://www.w3.org/2000/svg">
<rect width="124.412" height="141" rx="12" fill="#605A5A"/>
<rect x="12.4412" y="11.6851" width="99.5294" height="105.945" fill="#FBDA93"/>
<ellipse cx="61.7913" cy="129.704" rx="6.22059" ry="5.84254" fill="#FBDA93"/>
<line x1="24.8824" y1="37.1091" x2="99.5295" y2="37.1091" stroke="white" stroke-width="7"/>
<line x1="24.0529" y1="50.3522" x2="98.6999" y2="50.3522" stroke="white" stroke-width="7"/>
<line x1="24.0529" y1="63.5953" x2="98.6999" y2="63.5953" stroke="white" stroke-width="7"/>
<line x1="24.0529" y1="76.8384" x2="98.6999" y2="76.8384" stroke="white" stroke-width="7"/>
<line x1="24.0529" y1="90.0815" x2="98.6999" y2="90.0815" stroke="white" stroke-width="7"/>
<line x1="24.8824" y1="21.7576" x2="58.0589" y2="21.7576" stroke="white" stroke-width="8"/>
<rect x="274.535" y="16.5882" width="124.412" height="141" rx="12" transform="rotate(90 274.535 16.5882)" fill="#605A5A"/>
<rect x="262.85" y="29.0294" width="99.5294" height="105.945" transform="rotate(90 262.85 29.0294)" fill="#FBDA93"/>
<ellipse cx="144.831" cy="78.3794" rx="6.22059" ry="5.84254" transform="rotate(90 144.831 78.3794)" fill="#FBDA93"/>
<line x1="237.426" y1="41.4706" x2="237.426" y2="116.118" stroke="white" stroke-width="7"/>
<line x1="224.183" y1="40.6412" x2="224.183" y2="115.288" stroke="white" stroke-width="7"/>
<line x1="210.94" y1="40.6412" x2="210.94" y2="115.288" stroke="white" stroke-width="7"/>
<line x1="197.697" y1="40.6412" x2="197.697" y2="115.288" stroke="white" stroke-width="7"/>
<line x1="184.454" y1="40.6412" x2="184.454" y2="115.288" stroke="white" stroke-width="7"/>
<line x1="252.778" y1="41.4706" x2="252.778" y2="74.6471" stroke="white" stroke-width="8"/>
</svg>
