<svg width="222" height="141" viewBox="0 0 222 141" fill="none" xmlns="http://www.w3.org/2000/svg">
<rect width="76" height="141" rx="5" fill="#605A5A"/>
<circle cx="38" cy="131" r="5" fill="#9789B5"/>
<line x1="29.5" y1="9.5" x2="46.5" y2="9.5" stroke="#9789B5" stroke-width="3" stroke-linecap="round" stroke-linejoin="round"/>
<rect x="6.48779" y="16" width="63.0244" height="104" fill="#9789B5"/>
<line x1="10" y1="33.5" x2="65" y2="33.5" stroke="white" stroke-width="5"/>
<line x1="10" y1="42.5" x2="65" y2="42.5" stroke="white" stroke-width="5"/>
<line x1="10" y1="51.5" x2="65" y2="51.5" stroke="white" stroke-width="5"/>
<rect x="10" y="78" width="55" height="30" fill="white"/>
<rect x="222" y="65" width="76" height="141" rx="5" transform="rotate(90 222 65)" fill="#605A5A"/>
<circle cx="91" cy="103" r="5" transform="rotate(90 91 103)" fill="#9789B5"/>
<line x1="212.5" y1="94.5" x2="212.5" y2="111.5" stroke="#9789B5" stroke-width="3" stroke-linecap="round" stroke-linejoin="round"/>
<rect x="206" y="71.4878" width="63.0244" height="104" transform="rotate(90 206 71.4878)" fill="#9789B5"/>
<line x1="188.5" y1="75" x2="188.5" y2="130" stroke="white" stroke-width="5"/>
<line x1="179.5" y1="75" x2="179.5" y2="130" stroke="white" stroke-width="5"/>
<line x1="170.5" y1="75" x2="170.5" y2="130" stroke="white" stroke-width="5"/>
<rect x="144" y="75" width="55" height="30" transform="rotate(90 144 75)" fill="white"/>
</svg>
