<svg width="253" height="141" viewBox="0 0 253 141" fill="none" xmlns="http://www.w3.org/2000/svg">
<path d="M121 134C121 130.134 124.134 127 128 127H169.328C170.642 127 171.648 128.171 171.448 129.471C171.249 130.77 172.254 131.941 173.569 131.941H200.431C201.746 131.941 202.751 130.77 202.552 129.471C202.352 128.171 203.358 127 204.672 127H246C249.866 127 253 130.134 253 134C253 137.866 249.866 141 246 141H128C124.134 141 121 137.866 121 134Z" fill="#605A5A"/>
<rect x="121" y="43" width="132" height="80" rx="6.51724" fill="#605A5A"/>
<rect x="130.429" y="51" width="115.029" height="64" rx="5.06897" fill="#FE9580"/>
<rect x="193.6" y="56" width="47.1429" height="10" fill="white"/>
<line x1="193.6" y1="81.5" x2="240.743" y2="81.5" stroke="white" stroke-width="3"/>
<line x1="193.6" y1="89.5" x2="240.743" y2="89.5" stroke="white" stroke-width="3"/>
<line x1="135.143" y1="57.5" x2="182.286" y2="57.5" stroke="white" stroke-width="3"/>
<line x1="135.143" y1="66.5" x2="182.286" y2="66.5" stroke="white" stroke-width="3"/>
<line x1="135.143" y1="75.5" x2="182.286" y2="75.5" stroke="white" stroke-width="3"/>
<line x1="135.143" y1="84.5" x2="182.286" y2="84.5" stroke="white" stroke-width="3"/>
<rect x="59" y="117" width="46" height="15" fill="#605A5A"/>
<rect x="45" y="132" width="74" height="9" rx="4.5" fill="#605A5A"/>
<rect width="164" height="118" rx="7" fill="#605A5A"/>
<rect x="11" y="8" width="142" height="94" rx="9" fill="#FE9580"/>
<rect x="22" y="15" width="120" height="15" fill="white"/>
<rect x="78" y="34" width="8" height="60" fill="white"/>
<line x1="22" y1="35" x2="66" y2="35" stroke="white" stroke-width="2"/>
<line x1="22" y1="50" x2="66" y2="50" stroke="white" stroke-width="2"/>
<line x1="22" y1="65" x2="66" y2="65" stroke="white" stroke-width="2"/>
<line x1="98.0114" y1="35" x2="142.011" y2="35" stroke="white" stroke-width="2"/>
<line x1="98.0114" y1="50" x2="142.011" y2="50" stroke="white" stroke-width="2"/>
<line x1="98.0114" y1="65" x2="142.011" y2="65" stroke="white" stroke-width="2"/>
</svg>
